<svg width="10805" height="10805" viewBox="0 0 10805 10805" fill="none" xmlns="http://www.w3.org/2000/svg">
<path d="M7000.47 4525.43C7202.64 4521.84 7391.73 4557.82 7576.18 4642.76C7585.15 4646.77 7594.11 4650.78 7603.4 4654.9C7848.1 4769.59 8021.36 4980.31 8121.91 5226.49C8158 5330.31 8183.85 5440.16 8188.18 5550.21C8189.02 5564.25 8189.02 5564.25 8189.76 5578.49C8207.17 6135.94 7909.72 6645.17 7541.25 7040.02C7467.92 7116.62 7393.31 7190.91 7312.38 7259.6C7301.3 7269.2 7290.22 7278.91 7279.14 7288.51C7211.3 7347.6 7142.5 7404.68 7070.64 7458.82C7047.85 7475.91 7026.54 7492.69 7006.38 7512.84C6988.65 7523.08 6970.82 7533.21 6952.99 7543.23C6926.4 7558.53 6901.18 7575.52 6875.65 7592.51C6485.76 7852.29 6017.15 8085.48 5550.24 8156.5C5541.59 8157.87 5532.93 8159.24 5524.07 8160.61C5384.05 8179.4 5221.97 8175.7 5096.51 8103.74C5060.11 8073.35 5038.06 8043.49 5022.02 7998.85C5023.39 7931.75 5045.55 7887.74 5091.24 7840.58C5255 7688.11 5441.24 7556.95 5624.1 7428.43C5774.46 7322.06 5924.62 7215.07 6067.91 7099.32C6078.57 7090.77 6078.57 7090.77 6089.43 7082.12C6095.98 7076.74 6102.41 7071.46 6109.17 7065.97C6117.71 7059.01 6117.71 7059.01 6126.36 7051.83C6143.88 7036.43 6143.88 7036.43 6162.24 7006.36C6179.76 6996.75 6197.27 6987.15 6214.89 6977.55C6255.94 6951.59 6289.28 6916.24 6323.79 6882.37C6338.67 6867.92 6353.54 6853.46 6368.53 6839.01C6374.96 6832.67 6381.51 6826.34 6388.15 6819.7C6404.93 6805.87 6404.93 6805.87 6426.03 6805.87C6433 6791.94 6439.96 6778.02 6447.14 6763.67C6454.1 6763.67 6461.07 6763.67 6468.24 6763.67C6468.24 6756.7 6468.24 6749.74 6468.24 6742.56C6475.21 6742.56 6482.17 6742.56 6489.35 6742.56C6489.35 6735.6 6489.35 6728.63 6489.35 6721.46C6502.85 6708.48 6502.85 6708.48 6521.63 6693.81C6565.21 6657.51 6600.56 6617 6637.07 6573.73C6646.04 6563.5 6654.9 6553.26 6664.19 6542.71C6812.86 6371.56 6975.46 6164.96 6967.87 5926.59C6957.95 5851.57 6929.46 5787.52 6869.21 5740.15C6800.52 5697.41 6738.37 5692.24 6660.81 5707.22C6583.57 5728.85 6528.28 5773.17 6468.24 5824.56C6458.75 5832.58 6458.75 5832.58 6449.14 5840.7C6371.69 5906.23 6296.46 5973.87 6221.75 6042.45C6183.34 6076.64 6143.46 6108.93 6103.26 6141.01C6077.4 6161.79 6077.4 6161.79 6054.72 6186.06C6035.62 6204.42 6035.62 6204.42 6014.52 6204.42C6014.52 6211.39 6014.52 6218.35 6014.52 6225.53C5998.37 6239.98 5981.49 6253.7 5964.4 6267.1C5919.44 6302.98 5876.5 6339.91 5834.5 6379.16C5701.76 6501.77 5572.08 6601.49 5383.31 6597.48C5238.86 6586.29 5130.7 6517.7 5014.1 6437.93C5006.51 6432.76 4998.91 6427.7 4991.1 6422.53C4927.79 6378 4860.47 6314.48 4843.27 6236.08C4842.22 6155.25 4868.17 6108.3 4923.04 6048.26C4933.07 6038.13 4943.2 6028.1 4953.33 6018.08C4958.71 6012.7 4964.09 6007.32 4969.68 6001.72C4981.08 5990.33 4992.47 5979.04 5003.87 5967.75C5021.28 5950.55 5038.48 5933.35 5055.78 5916.15C5066.86 5905.07 5078.05 5893.99 5089.13 5882.91C5094.19 5877.85 5099.36 5872.78 5104.53 5867.5C5129.33 5843.13 5154.55 5820.13 5181.35 5797.86C5211.32 5772.86 5237.91 5746.79 5265.34 5719.04C5276.32 5707.96 5287.39 5696.88 5298.37 5685.91C5310.82 5673.35 5323.38 5660.69 5335.83 5648.13C5405.57 5578.18 5475.32 5508.11 5545.07 5438.15C5587.28 5395.95 5629.48 5353.63 5671.58 5311.22C5712.31 5270.17 5753.15 5229.23 5794.09 5188.29C5809.6 5172.67 5825.22 5157.05 5840.73 5141.44C5862.36 5119.6 5884.1 5097.86 5905.83 5076.12C5912.27 5069.58 5918.71 5063.04 5925.35 5056.39C5969.88 5012.07 5969.88 5012.07 5993.41 5012.07C5993.41 5001.63 5993.41 4991.18 5993.41 4980.42C6010.61 4969.34 6028.34 4958.89 6046.17 4948.76C6060.94 4935.47 6075.4 4921.86 6089.64 4907.93C6337.82 4681.49 6663.98 4537.24 7000.47 4525.43Z" fill="#558581"/>
<path d="M4864.36 5022.64C4874.6 5031.71 4884.83 5040.79 4895.38 5050.18C4973.47 5120.56 5048.28 5194.31 5122.98 5268.28C5135.22 5280.31 5147.36 5292.34 5159.6 5304.37C5177.01 5321.36 5194.21 5338.56 5211.41 5355.65C5216.68 5360.82 5221.96 5365.99 5227.45 5371.27C5274.72 5418.86 5274.72 5418.86 5275.88 5455.26C5259 5474.89 5242.32 5490.82 5223.12 5508.02C5209.4 5521.31 5195.79 5534.71 5182.18 5548.22C5175.74 5554.66 5169.2 5560.99 5162.55 5567.53C5142.4 5588.63 5123.3 5610.05 5104.31 5632.11C5058.51 5684.86 5008.81 5733.4 4958.9 5782.36C4917.12 5823.62 4877.66 5865.93 4839.35 5910.46C4814.77 5938.53 4788.7 5964.59 4762.11 5990.76C4752.51 6000.26 4742.91 6009.75 4732.99 6019.57C4719.7 6032.76 4719.7 6032.76 4706.08 6046.16C4692.05 6060.19 4677.91 6074.33 4663.88 6088.36C4631.59 6070 4604.47 6052.7 4579.46 6025.05C4572.5 6028.54 4565.53 6032.02 4558.36 6035.61C4554.45 6028.01 4550.55 6020.52 4546.54 6012.71C4523.33 5977.78 4495.58 5953.09 4463.39 5926.82C4457.27 5921.75 4451.26 5916.69 4444.93 5911.52C4389.53 5865.93 4332.76 5822.78 4273.46 5782.36C4264.6 5776.24 4255.63 5770.12 4246.55 5763.9C4179.97 5720.85 4114.87 5689.72 4034.15 5702.38C3967.88 5720.11 3926.41 5746.38 3881.04 5798.19C3833.14 5890.84 3833.56 5989.6 3861.94 6088.36C3880.41 6138.8 3902.36 6187.55 3925.25 6236.09C3932.22 6236.09 3939.18 6236.09 3946.36 6236.09C3947.52 6246.96 3947.52 6246.96 3948.68 6258.14C3959.34 6297.71 3980.23 6326.31 4004.39 6358.7C4009.14 6365.24 4013.89 6371.68 4018.74 6378.43C4096.93 6484.48 4180.71 6589.78 4276.21 6680.95C4294.57 6700.37 4294.57 6700.37 4294.57 6721.47C4301.53 6721.47 4308.49 6721.47 4315.67 6721.47C4315.67 6728.43 4315.67 6735.4 4315.67 6742.57C4322.63 6742.57 4329.6 6742.57 4336.77 6742.57C4359.14 6762.41 4359.14 6762.41 4378.98 6784.78C4378.98 6791.74 4378.98 6798.71 4378.98 6805.88C4385.2 6808.73 4391.43 6811.58 4397.87 6814.54C4421.19 6826.99 4436.91 6839.75 4455.9 6858.01C4462.23 6864.13 4468.67 6870.25 4475.21 6876.58C4481.96 6883.02 4488.72 6889.56 4495.68 6896.21C4611.43 7005.84 4736.05 7101.97 4864.36 7196.3C4874.49 7203.79 4874.49 7203.79 4884.83 7211.49C4912.9 7232.07 4936.53 7248.53 4969.88 7259.61C4969.88 7266.57 4969.88 7273.54 4969.88 7280.71C4975.79 7283.46 4981.7 7286.31 4987.71 7289.15C5014.51 7303.08 5038.89 7319.02 5063.89 7335.79C5073.71 7342.34 5083.52 7348.88 5093.54 7355.63C5103.67 7362.49 5113.8 7369.35 5124.14 7376.31C5144.3 7389.92 5164.45 7403.43 5184.61 7416.94C5198.01 7425.91 5198.01 7425.91 5211.62 7435.09C5233.04 7449.75 5233.04 7449.75 5254.78 7460.09C5250.34 7505.99 5220.27 7527.94 5187.45 7556.32C5181.86 7561.5 5176.16 7566.56 5170.36 7571.73C5142.61 7596.53 5114.54 7621.01 5086.37 7645.28C4969.46 7747.84 4875.86 7861.38 4865.2 8020.71C4864.89 8027.25 4864.68 8033.69 4864.36 8040.44C4796.62 8035.16 4743.44 8017.96 4681.71 7990.32C4672.21 7986.2 4662.72 7981.98 4653.01 7977.76C4621.35 7963.62 4589.8 7949.38 4558.36 7934.92C4547.07 7929.75 4535.67 7924.58 4524.07 7919.2C4357.14 7842.28 4197.28 7757.76 4041.32 7660.58C4034.25 7656.25 4027.18 7651.92 4020.01 7647.39C3827.33 7528.15 3644.79 7393.3 3476.59 7241.35C3458.97 7225.74 3458.97 7225.74 3429.32 7206.85C3429.32 7199.89 3429.32 7192.92 3429.32 7185.75C3422.36 7185.75 3415.39 7185.75 3408.22 7185.75C3390.17 7168.65 3372.66 7150.93 3355.46 7132.99C3347.02 7124.65 3338.58 7116.32 3329.82 7107.77C3276.11 7054.59 3224.41 7000.99 3176.08 6943.06C3171.12 6937.15 3166.05 6931.13 3160.99 6925.01C3086.49 6835.96 3015.8 6746.37 2954.49 6647.61C2950.59 6641.28 2946.68 6635.05 2942.67 6628.51C2893.29 6548.84 2846.55 6468.76 2806.77 6383.81C2799.8 6387.3 2792.84 6390.78 2785.66 6394.37C2784.61 6384.24 2783.66 6374 2782.6 6363.55C2775.53 6313.96 2757.6 6269.43 2739.45 6222.9C2714.33 6157.06 2691.75 6092.16 2676.03 6023.37C2673.92 6016.93 2671.81 6010.49 2669.59 6003.95C2662.63 6000.47 2655.67 5996.99 2648.49 5993.4C2640.58 5966.81 2635.93 5947.92 2643.43 5920.91C2649.44 5894.42 2646.91 5875.54 2642.58 5848.73C2641.1 5839.13 2639.63 5829.53 2638.15 5819.61C2636.57 5809.48 2634.98 5799.35 2633.3 5788.91C2619.79 5697.74 2612.61 5610.9 2616.84 5518.57C2620.32 5518.57 2623.8 5518.57 2627.39 5518.57C2628.34 5510.02 2629.18 5501.37 2630.13 5492.61C2667.38 5189.25 2806.77 4935.06 3046.4 4741.75C3636.45 4300.16 4378.77 4584 4864.36 5022.64Z" fill="#E1ECEA"/>
<path d="M3682.56 2870.08C3763.6 2867.86 3836.62 2869.23 3914.7 2891.18C3931.27 2895.09 3931.27 2895.09 3948.15 2898.99C4132.17 2945.21 4291.61 3051.04 4400.08 3207.73C4511.72 3397.88 4543.27 3598.36 4494.73 3813.72C4445.03 3996.8 4325.69 4159.71 4160.66 4256.37C3979.28 4356.93 3768.35 4384.57 3566.49 4336.77C3368.65 4275.15 3207.84 4154.97 3108.02 3971.05C3021.92 3791.99 2998.18 3567.66 3062.75 3377.83C3090.93 3301.01 3124.8 3229.68 3176.08 3165.53C3183.47 3156.24 3190.75 3146.96 3198.34 3137.35C3307.24 3008.52 3462.45 2909.54 3633.08 2893.19C3649.54 2892.34 3666.1 2891.5 3682.56 2891.18C3682.56 2884.22 3682.56 2877.25 3682.56 2870.08Z" fill="#E1ECEA"/>
<path d="M6953.61 2870.08C7002.36 2870.08 7051.11 2870.08 7101.33 2870.08C7101.33 2877.04 7101.33 2884.01 7101.33 2891.18C7111.15 2890.55 7120.96 2889.92 7130.98 2889.18C7299.39 2889.49 7465.9 2997.97 7583.76 3108.97C7708.9 3238.55 7766.3 3400.3 7776.65 3577.05C7777.6 3590.34 7777.6 3590.34 7778.54 3603.95C7785.19 3796.1 7711.01 3977.06 7583.44 4118.46C7447.22 4263.75 7265.41 4348.17 7066.93 4359.14C6849.36 4364.84 6660.48 4286.44 6502.1 4139.77C6399.54 4040.06 6317.02 3888.96 6299.4 3745.87C6297.92 3733.63 6296.34 3721.39 6294.76 3708.84C6274.18 3509.51 6321.66 3323.8 6447.12 3165.53C6454.09 3156.77 6460.95 3147.91 6468.12 3138.83C6592.21 2991.42 6762.94 2903.63 6953.61 2880.63C6953.61 2877.15 6953.61 2873.67 6953.61 2870.08Z" fill="#558581"/>
<path d="M5972.29 5012.09C5982.74 5017.36 5982.74 5017.36 5993.4 5022.64C5742.69 5273.35 5491.98 5524.06 5233.67 5782.36C5226.71 5778.88 5219.74 5775.4 5212.57 5771.81C5465.81 5518.57 5719.05 5265.33 5972.29 5012.09Z" fill="#558581"/>
<path d="M6563.19 6658.16C6563.19 6689.82 6563.19 6689.82 6549.58 6706.07C6543.46 6711.87 6537.24 6717.57 6530.9 6723.48C6503.68 6749.43 6478.15 6775.92 6453.67 6804.62C6272.7 7013.54 6272.7 7013.54 6172.78 7027.47C6202.11 6988.32 6232.61 6958.67 6271.01 6928.5C6314.07 6894.2 6353.42 6859.07 6390.78 6818.65C6404.92 6805.88 6404.92 6805.88 6426.02 6805.88C6432.98 6791.96 6439.95 6778.03 6447.12 6763.68C6454.09 6763.68 6461.05 6763.68 6468.23 6763.68C6468.23 6756.71 6468.23 6749.75 6468.23 6742.57C6475.19 6742.57 6482.15 6742.57 6489.33 6742.57C6489.33 6735.61 6489.33 6728.65 6489.33 6721.47C6505.47 6705.54 6505.47 6705.54 6526.26 6688.55C6533.12 6682.85 6539.98 6677.15 6547.05 6671.24C6552.32 6666.92 6557.71 6662.59 6563.19 6658.16Z" fill="#558581"/>
<path d="M5381.4 5624.09C5381.4 5663.23 5374.12 5667.03 5347.21 5694.04C5339.72 5701.64 5332.23 5709.13 5324.52 5716.94C5316.4 5725.07 5308.17 5733.19 5299.83 5741.53C5291.5 5749.97 5283.16 5758.3 5274.51 5766.85C5256.89 5784.58 5239.16 5802.2 5221.43 5819.82C5194.21 5846.83 5167.3 5874.06 5140.29 5901.18C5123.09 5918.37 5105.89 5935.47 5088.8 5952.56C5076.66 5964.8 5076.66 5964.8 5064.21 5977.25C5056.61 5984.85 5049.02 5992.34 5041.21 6000.05C5034.56 6006.69 5027.91 6013.34 5021.05 6020.09C5000.27 6036.66 4985.28 6041.94 4959.33 6046.16C5020.95 5971.13 5089.22 5889.15 5170.36 5835.12C5174.9 5822.04 5174.9 5822.04 5179.65 5808.74C5185.45 5795.66 5185.45 5795.66 5191.46 5782.36C5198.96 5779.83 5206.45 5777.19 5214.05 5774.55C5257.1 5755.56 5283.9 5724.96 5316.08 5691.41C5322.41 5684.86 5328.74 5678.43 5335.18 5671.78C5350.69 5655.95 5366.1 5640.02 5381.4 5624.09Z" fill="#558581"/>
<path d="M2690.7 5233.67C2702.52 5269.02 2697.24 5283.37 2687.11 5317.98C2657.67 5422.44 2655.14 5525.64 2655.77 5633.37C2655.77 5640.76 2655.77 5648.25 2655.88 5655.95C2656.41 5747.65 2660.42 5838.71 2669.6 5930.09C2648.7 5898.85 2644.59 5885.66 2639.52 5849.79C2638.15 5840.08 2636.78 5830.48 2635.41 5820.56C2634.04 5810.33 2632.66 5800.2 2631.4 5789.64C2629.92 5779.2 2628.55 5768.86 2627.18 5758.2C2616.94 5677.8 2613.14 5599.61 2616.84 5518.57C2620.32 5518.57 2623.8 5518.57 2627.39 5518.57C2628.97 5504.96 2628.97 5504.96 2630.55 5491.03C2641.84 5401.34 2661.37 5319.46 2690.7 5233.67Z" fill="#E1ECEA"/>
<path d="M3682.56 2870.08C3763.5 2867.86 3836.72 2869.02 3914.7 2891.18C3932.53 2895.83 3932.53 2895.83 3950.79 2900.47C4018.43 2918.62 4077.83 2936.66 4136.29 2975.6C4129.32 2979.08 4122.36 2982.56 4115.19 2986.15C4084.69 2974.65 4055.46 2960.93 4025.81 2947.32C3938.23 2914.5 3851.29 2908.17 3758.43 2908.28C3747.35 2908.28 3736.27 2908.28 3724.77 2908.28C3649.22 2909.23 3587.28 2918.09 3516.8 2946.26C3492.63 2954.49 3492.63 2954.49 3460.98 2943.94C3535.05 2909.44 3601 2894.24 3682.56 2891.18C3682.56 2884.22 3682.56 2877.25 3682.56 2870.08Z" fill="#E1ECEA"/>
<path d="M3460.98 2965.04C3448.74 2971.8 3448.74 2971.8 3436.29 2978.66C3334.78 3034.79 3334.78 3034.79 3249.94 3112.77C3249.94 3123.21 3249.94 3133.66 3249.94 3144.42C3234.85 3162.57 3234.85 3162.57 3215.02 3181.36C3208.47 3187.58 3202.04 3193.81 3195.28 3200.14C3183.36 3211.43 3171.33 3222.61 3159.3 3233.69C3142.1 3252.47 3132.29 3271.15 3121.32 3294.15C3115.93 3305.44 3115.93 3305.44 3110.34 3317.05C3107.7 3322.75 3104.96 3328.45 3102.22 3334.36C3091.67 3302.7 3091.67 3302.7 3098.84 3282.86C3151.28 3189.59 3329.4 2921.15 3460.98 2965.04Z" fill="#E1ECEA"/>
<path d="M6046.16 4969.88C6046.16 5001.53 6046.16 5001.53 6020.41 5028.02C6007.96 5039.31 5995.4 5050.39 5982.85 5061.57C5903.18 5133.64 5827.1 5208.98 5751.34 5285.17C5745.64 5290.86 5739.84 5296.67 5733.83 5302.68C5700.8 5335.92 5667.67 5369.16 5634.64 5402.5C5627.67 5399.02 5620.71 5395.54 5613.54 5391.95C5666.61 5338.56 5719.79 5285.27 5772.97 5231.98C5791.02 5213.84 5809.06 5195.69 5827.1 5177.54C5853.06 5151.47 5879.12 5125.41 5905.19 5099.35C5913.21 5091.22 5921.22 5083.1 5929.45 5074.76C5966.81 5037.41 6003.84 5001.64 6046.16 4969.88Z" fill="#558581"/>
<path d="M5170.36 5814.02C5170.36 5845.67 5170.36 5845.67 5153.27 5863.61C5144.93 5870.58 5136.7 5877.44 5128.16 5884.61C5075.19 5930.62 5024.96 5978.84 4975.15 6028.33C4967.66 6035.71 4960.28 6042.99 4952.57 6050.48C4945.5 6057.55 4938.54 6064.52 4931.26 6071.8C4921.87 6081.08 4921.87 6081.08 4912.27 6090.69C4882.19 6125.4 4872.28 6156.53 4868.37 6201.8C4867.53 6210.24 4866.79 6218.68 4865.94 6227.33C4865.42 6233.77 4864.89 6240.1 4864.36 6246.64C4857.4 6243.16 4850.43 6239.68 4843.26 6236.09C4843.89 6221.53 4844.84 6207.07 4845.9 6192.62C4846.42 6184.49 4846.85 6176.37 4847.37 6168.03C4862.25 6105.67 4910.37 6060.4 4954.79 6016.61C4960.28 6011.13 4965.76 6005.64 4971.46 5999.94C4983.07 5988.44 4994.68 5976.94 5006.28 5965.44C5024.01 5947.82 5041.74 5930.09 5059.46 5912.47C5070.75 5901.18 5082.04 5889.99 5093.33 5878.81C5098.61 5873.53 5103.89 5868.15 5109.37 5862.77C5146.83 5825.84 5146.83 5825.84 5170.36 5814.02Z" fill="#558581"/>
<path d="M4167.95 6584.3C4211.95 6621.23 4255.63 6657.95 4294.57 6700.37C4294.57 6707.33 4294.57 6714.29 4294.57 6721.47C4301.53 6721.47 4308.49 6721.47 4315.67 6721.47C4315.67 6728.43 4315.67 6735.4 4315.67 6742.57C4322.63 6742.57 4329.6 6742.57 4336.77 6742.57C4343.74 6756.5 4350.7 6770.43 4357.88 6784.78C4318.2 6778.77 4299.84 6762.41 4272.2 6734.03C4264.92 6726.75 4257.74 6719.46 4250.25 6712.08C4232.31 6691.08 4221.86 6672.3 4210.15 6647.61C4202.77 6640.22 4195.38 6632.83 4187.78 6625.24C4181.24 6618.7 4174.7 6612.15 4167.95 6605.4C4167.95 6598.44 4167.95 6591.47 4167.95 6584.3Z" fill="#E1ECEA"/>
<path d="M6225.54 4801.05C6232.5 4804.53 6239.47 4808.01 6246.64 4811.6C6239.47 4817.41 6232.29 4823.1 6225.01 4829.01C6163.81 4878.61 6104.72 4929.25 6047.11 4983.07C6025.05 5001.53 6025.05 5001.53 5993.4 5012.09C5993.4 5001.64 5993.4 4991.19 5993.4 4980.43C6010.6 4969.35 6028.32 4958.91 6046.16 4948.78C6063.67 4933.79 6080.77 4918.39 6097.65 4902.56C6138.49 4865.1 6179.53 4832.07 6225.54 4801.05Z" fill="#558581"/>
<path d="M3946.36 7586.71C4012.09 7604.65 4054.3 7625.33 4104.63 7671.13C4125.32 7685.9 4146.52 7699.62 4167.94 7713.34C4157.5 7718.61 4157.5 7718.61 4146.84 7723.89C4126.05 7713.65 4126.05 7713.65 4100.94 7697.61C4091.97 7691.92 4083 7686.22 4073.72 7680.31C4064.33 7674.19 4054.94 7668.17 4045.33 7661.84C4035.84 7655.93 4026.34 7649.92 4016.63 7643.69C3965.56 7611.09 3965.56 7611.09 3946.36 7597.27C3946.36 7593.78 3946.36 7590.3 3946.36 7586.71Z" fill="#E1ECEA"/>
<path d="M4853.81 7892.71C4865.73 7928.38 4862.46 7943.05 4854.44 7979.13C4852.44 7988.63 4850.33 7998.13 4848.22 8007.94C4846.63 8015.22 4844.95 8022.4 4843.26 8029.89C4781.42 8012.37 4722.33 7993.27 4663.88 7966.58C4702.92 7953.6 4712.2 7960.35 4748.92 7976.5C4784.38 7992.96 4784.38 7992.96 4822.15 7998.23C4832.6 7963.41 4843.05 7928.59 4853.81 7892.71Z" fill="#E1ECEA"/>
<path d="M5149.26 7407.33C5187.14 7421.37 5220.48 7438.57 5254.78 7460.09C5248.76 7490.38 5245.7 7500.82 5223.12 7523.4C5200.75 7519.39 5200.75 7519.39 5180.91 7512.85C5187.88 7498.92 5194.84 7484.99 5202.02 7470.64C5184.61 7449.75 5167.2 7428.86 5149.26 7407.33Z" fill="#E1ECEA"/>
<path d="M6658.16 6573.75C6658.16 6619.44 6630.09 6639.38 6600.12 6670.72C6591.79 6679.58 6591.79 6679.58 6583.35 6688.55C6569.63 6703.11 6555.91 6717.57 6542.09 6732.02C6535.13 6728.54 6528.16 6725.06 6520.99 6721.47C6566.25 6672.72 6611.52 6623.97 6658.16 6573.75Z" fill="#558581"/>
<path d="M4400.08 4695.53C4461.28 4711.25 4507.5 4743.96 4558.36 4779.95C4538.84 4786.38 4538.84 4786.38 4516.15 4790.5C4491.04 4772.66 4491.04 4772.66 4463.39 4748.29C4451.89 4740.69 4440.28 4733.1 4428.47 4725.18C4419.08 4718.85 4409.68 4712.63 4400.08 4706.08C4400.08 4702.6 4400.08 4699.12 4400.08 4695.53Z" fill="#E1ECEA"/>
<path d="M7681.68 3914.7C7685.16 3914.7 7688.64 3914.7 7692.23 3914.7C7689.38 3983.82 7662.58 4020.96 7618.37 4072.98C7618.37 4032.99 7631.77 4011.46 7650.02 3976.01C7655.93 3964.61 7661.74 3953.11 7667.86 3941.29C7672.39 3932.54 7676.93 3923.78 7681.68 3914.7Z" fill="#558581"/>
<path d="M4400.08 5845.67C4431.63 5860.02 4455.9 5876.8 4481.86 5899.7C4491.57 5908.25 4491.57 5908.25 4501.48 5917C4506.34 5921.33 4511.19 5925.66 4516.15 5930.09C4502.22 5933.57 4488.29 5937.05 4473.94 5940.64C4461.6 5926.82 4449.25 5912.99 4437.01 5899.07C4430.15 5891.36 4423.3 5883.66 4416.23 5875.75C4400.08 5856.23 4400.08 5856.23 4400.08 5845.67Z" fill="#E1ECEA"/>
<path d="M5328.64 5655.74C5335.6 5659.22 5342.57 5662.71 5349.74 5666.29C5311.44 5704.6 5273.14 5742.9 5233.67 5782.36C5226.71 5778.88 5219.74 5775.4 5212.57 5771.81C5251.29 5733.09 5289.91 5694.47 5328.64 5655.74Z" fill="#558581"/>
<path d="M2859.53 6468.23C2869.97 6473.5 2869.97 6473.5 2880.63 6478.78C2880.63 6485.74 2880.63 6492.71 2880.63 6499.88C2891.08 6499.88 2901.52 6499.88 2912.29 6499.88C2919.25 6531.22 2926.21 6562.56 2933.39 6594.85C2898.99 6560.45 2882 6532.06 2859.53 6489.33C2859.53 6482.37 2859.53 6475.4 2859.53 6468.23Z" fill="#9FC1BD"/>
<path d="M3133.87 3967.46C3158.56 3991.31 3178.08 4012.62 3197.18 4041.32C3193.17 4064.43 3193.17 4064.43 3186.63 4083.53C3151.91 4045.44 3138.62 4018.85 3133.87 3967.46Z" fill="#E1ECEA"/>
<path d="M3387.11 4231.25C3428.37 4243.49 3459.6 4256.16 3492.63 4284.01C3435.65 4289.18 3435.65 4289.18 3404.21 4263.54C3387.11 4241.81 3387.11 4241.81 3387.11 4231.25Z" fill="#E1ECEA"/>
<path d="M5655.74 7407.33C5662.71 7410.82 5669.67 7414.3 5676.85 7417.89C5643.4 7455.24 5622.29 7476.87 5571.33 7481.2C5598.55 7453.23 5623.24 7429.07 5655.74 7407.33Z" fill="#558581"/>
<path d="M3693.12 7407.33C3717.49 7409.34 3717.49 7409.34 3745.87 7417.89C3764.97 7444.9 3764.97 7444.9 3777.53 7470.64C3736.27 7457.24 3716.43 7444.16 3693.12 7407.33Z" fill="#E1ECEA"/>
<path d="M4220.7 3038.91C4251.83 3053.36 4278.1 3070.46 4305.12 3091.67C4301.64 3098.63 4298.15 3105.59 4294.57 3112.77C4269.45 3105.49 4269.45 3105.49 4241.81 3091.67C4227.98 3064.02 4227.98 3064.02 4220.7 3038.91Z" fill="#E1ECEA"/>
<path d="M6141.12 4885.46C6141.12 4917.12 6141.12 4917.12 6127.3 4931.79C6110.73 4944.45 6094.27 4957.22 6077.81 4969.88C6070.85 4966.4 6063.88 4962.91 6056.71 4959.33C6084.57 4934.95 6112.42 4910.58 6141.12 4885.46Z" fill="#558581"/>
<path d="M6615.95 5719.05C6626.4 5719.05 6636.85 5719.05 6647.61 5719.05C6644.13 5726.02 6640.64 5732.98 6637.06 5740.16C6630.09 5733.19 6623.13 5726.23 6615.95 5719.05Z" fill="#558581"/>
<path d="M4157.39 7734.44C4164.36 7741.4 4171.32 7748.37 4178.5 7755.54C4171.53 7755.54 4164.57 7755.54 4157.39 7755.54C4157.39 7748.58 4157.39 7741.61 4157.39 7734.44Z" fill="#9FC1BD"/>
<path d="M3629.8 4357.88C3661.46 4368.43 3661.46 4368.43 3661.46 4368.43L3629.8 4357.88Z" fill="#74CBD2"/>
<path d="M5265.33 8167.06C5286.43 8177.61 5286.43 8177.61 5286.43 8177.61L5265.33 8167.06Z" fill="#358F98"/>
<path d="M6288.85 7913.82C6309.95 7924.37 6309.95 7924.37 6309.95 7924.37L6288.85 7913.82Z" fill="#2F8D97"/>
<path d="M6626.5 7744.99C6647.61 7755.54 6647.61 7755.54 6647.61 7755.54L6626.5 7744.99Z" fill="#328D96"/>
<path d="M5212.57 7428.44C5233.67 7438.99 5233.67 7438.99 5233.67 7438.99L5212.57 7428.44Z" fill="#5FB5BC"/>
<path d="M7227.95 7333.47C7249.06 7344.02 7249.06 7344.02 7249.06 7344.02L7227.95 7333.47Z" fill="#328D96"/>
<path d="M4632.22 7006.37C4653.33 7016.92 4653.33 7016.92 4653.33 7016.92L4632.22 7006.37Z" fill="#6DC4CD"/>
<path d="M7734.44 6826.99C7755.54 6837.54 7755.54 6837.54 7755.54 6837.54L7734.44 6826.99Z" fill="#328D97"/>
<path d="M5708.5 6489.33C5729.6 6499.88 5729.6 6499.88 5729.6 6499.88L5708.5 6489.33Z" fill="#348F99"/>
<path d="M6763.68 5708.5C6784.78 5719.05 6784.78 5719.05 6784.78 5719.05L6763.68 5708.5Z" fill="#35939B"/>
<path d="M7386.23 4558.36C7407.33 4568.91 7407.33 4568.91 7407.33 4568.91L7386.23 4558.36Z" fill="#31939D"/>
<path d="M6679.26 4558.36C6700.37 4568.91 6700.37 4568.91 6700.37 4568.91L6679.26 4558.36Z" fill="#37969F"/>
<path d="M3387.11 4558.36C3408.22 4568.91 3408.22 4568.91 3408.22 4568.91L3387.11 4558.36Z" fill="#75CCD4"/>
<path d="M6932.5 4357.88C6953.61 4368.43 6953.61 4368.43 6953.61 4368.43L6932.5 4357.88Z" fill="#34929B"/>
<path d="M4516.15 3460.98C4537.26 3471.53 4537.26 3471.53 4537.26 3471.53L4516.15 3460.98Z" fill="#72C5D0"/>
<path d="M3387.11 2954.49C3408.22 2965.04 3408.22 2965.04 3408.22 2965.04L3387.11 2954.49Z" fill="#75C9D3"/>
<path d="M6921.95 2870.08C6943.06 2880.63 6943.06 2880.63 6943.06 2880.63L6921.95 2870.08Z" fill="#34919D"/>
<path d="M3650.91 2870.08C3672.01 2880.63 3672.01 2880.63 3672.01 2880.63L3650.91 2870.08Z" fill="#75CAD6"/>
</svg>
